<svg xmlns="http://www.w3.org/2000/svg" xmlns:xlink="http://www.w3.org/1999/xlink" width="341" height="337" version="1.1" viewBox="0 0 341 337"><title>Group 2</title><desc>Created with Sketch.</desc><defs><linearGradient id="linearGradient-1" x1="-10745.541%" x2="-10743.591%" y1="-3496.403%" y2="-3497.761%"><stop offset="0%" stop-color="#1A237E" stop-opacity=".4"/><stop offset="100%" stop-color="#1A237E" stop-opacity="0"/></linearGradient></defs><g id="Page-1" fill="none" fill-rule="evenodd" stroke="none" stroke-width="1"><g id="Group-2" transform="translate(4.000000, 4.000000)"><path id="Rectangle" fill="#FFF" fill-opacity=".079" stroke="#F5F5F5" stroke-width="8" d="M60,0 L242,0 C275.137085,-6.08718376e-15 302,26.862915 302,60 L302,120.520215 L302,120.520215 L302,242 C302,275.137085 275.137085,302 242,302 L181.445565,302 L181.445565,302 L60,302 C26.862915,302 1.82689772e-14,275.137085 0,242 L0,60 C-1.11635499e-14,26.862915 26.862915,6.08718376e-15 60,0 Z"/><g id="Group" fill-rule="nonzero" transform="translate(197.000000, 161.000000)"><g id="Path" fill="#39CEFD" transform="translate(40.000000, 77.000000)"><polygon points="26.588 72.958 99.604 0 46.512 0 .05 46.431"/></g><g id="Path" fill="#39CEFD"><polygon points=".1 87.051 86.625 .117 139.86 .117 26.726 113.802"/></g><g id="Path" fill="#03569B" transform="translate(65.000000, 125.000000)"><polygon points="20.166 46.834 73.902 46.834 26.876 .117 0 26.817"/></g><g id="Path" fill="url(#linearGradient-1)" transform="translate(67.000000, 125.000000)"><polygon points="26.269 .117 0 26.815 38.959 13.098"/></g><g id="Path" fill="#39CEFD" transform="translate(39.000000, 99.000000)"><polygon points=".049 26.978 26.414 .134 52.778 26.978 26.414 53.839"/></g></g></g></g></svg>